<svg xmlns="http://www.w3.org/2000/svg" xmlns:xlink="http://www.w3.org/1999/xlink" x="0px" y="0px" viewBox="0 0 32 32" enable-background="new 0 0 32 32" xml:space="preserve" id="" focusable="false" role="presentation" tabindex="-1" aria-hidden="true"><title></title><path class="hcFill1 hcStroke1 hpFill1 hpStroke2 thFill1 thStroke1" fill="#FBE000" stroke="#666666" stroke-width="1.5" stroke-linecap="round" stroke-linejoin="round" stroke-miterlimit="10" d=" M11.002 15.897c1.168-2.853 3.887-4.886 7.106-5.101C17.227 8.576 15.063 7 12.533 7c-3.309 0-6 2.691-6 6 c0 0.79 0.157 1.543 0.436 2.234c0.354-0.064 0.717-0.103 1.089-0.103C9.127 15.131 10.13 15.411 11.002 15.897z"></path><line class="hcStroke1 hpStroke2 thStroke1" fill="none" stroke="#666666" stroke-width="1.5" stroke-linecap="round" stroke-linejoin="round" stroke-miterlimit="10" x1="12.5" y1="4.25" x2="12.5" y2="1.25"></line><line class="hcStroke1 hpStroke2 thStroke1" fill="none" stroke="#666666" stroke-width="1.5" stroke-linecap="round" stroke-linejoin="round" stroke-miterlimit="10" x1="3.781" y1="13" x2="0.781" y2="13"></line><line class="hcStroke1 hpStroke2 thStroke1" fill="none" stroke="#666666" stroke-width="1.5" stroke-linecap="round" stroke-linejoin="round" stroke-miterlimit="10" x1="6.307" y1="6.673" x2="4.186" y2="4.552"></line><line class="hcStroke1 hpStroke2 thStroke1" fill="none" stroke="#666666" stroke-width="1.5" stroke-linecap="round" stroke-linejoin="round" stroke-miterlimit="10" x1="18.759" y1="6.673" x2="20.88" y2="4.552"></line><path class="hcFill1 hcStroke1 hpFill1 hpStroke1 thFill1 thStroke1" fill="#FFFFFF" stroke="#666666" stroke-width="1.5" stroke-linecap="round" stroke-miterlimit="10" d="M26.746 17.281 c-0.776-3.609-3.906-6.337-7.704-6.511c-0.127-0.006-0.253-0.017-0.382-0.017c-3.461 0-6.422 2.127-7.657 5.143 c-0.872-0.486-1.875-0.766-2.944-0.766c-2.235 0-4.182 1.214-5.232 3.015C2.304 19.041 2 20.078 2 21.189 c0 3.346 2.712 6.058 6.058 6.058l17.968-0.01c2.75-0.02 4.974-2.254 4.974-5.008C31 19.719 29.153 17.647 26.746 17.281z"></path></svg>