<svg xmlns="http://www.w3.org/2000/svg" xmlns:xlink="http://www.w3.org/1999/xlink" x="0px" y="0px" viewBox="0 0 32 32" enable-background="new 0 0 32 32" xml:space="preserve" id="" focusable="false" role="presentation" tabindex="-1" aria-hidden="true"><title></title><path class="hcFill1 hcStroke1 hpFill1 hpStroke2 thFill1 thStroke1" fill="#FBE000" stroke="#666666" stroke-width="1.5" stroke-linecap="round" stroke-miterlimit="10" d="M11.002 15.897 c1.078-2.634 3.474-4.589 6.368-5.042c0.13-0.588 0.203-1.197 0.203-1.825c0-3.268-1.861-6.096-4.578-7.497 c0.598 2.974-0.253 6.18-2.558 8.486c-2.442 2.442-5.895 3.246-9.011 2.43c0.685 1.542 1.824 2.831 3.239 3.721 c0.968-0.655 2.135-1.038 3.392-1.038C9.127 15.131 10.13 15.411 11.002 15.897z"></path><path class="hcFill1 hcStroke1 hpFill1 hpStroke1 thFill1 thStroke1" fill="#FFFFFF" stroke="#666666" stroke-width="1.5" stroke-linecap="round" stroke-miterlimit="10" d="M26.746 17.281 c-0.802-3.73-4.116-6.528-8.086-6.528c-0.439 0-0.869 0.035-1.289 0.101c-2.895 0.454-5.29 2.408-6.368 5.042 c-0.872-0.486-1.875-0.766-2.944-0.766c-1.257 0-2.424 0.383-3.392 1.038C3.057 17.259 2 19.1 2 21.189 c0 3.346 2.712 6.058 6.058 6.058l17.968-0.01c2.75-0.02 4.974-2.254 4.974-5.008C31 19.719 29.153 17.647 26.746 17.281z"></path></svg>