<svg xmlns="http://www.w3.org/2000/svg" xmlns:xlink="http://www.w3.org/1999/xlink" x="0px" y="0px" viewBox="0 0 32 32" enable-background="new 0 0 32 32" xml:space="preserve" id="" focusable="false" role="presentation" tabindex="-1" aria-hidden="true"><title></title><path class="hcFill1 hcStroke1 hpFill1 hpStroke1 thFill1 thStroke1" fill="#FFFFFF" stroke="#666666" stroke-width="1.5" stroke-linecap="round" stroke-miterlimit="10" d="M26.03 27.24 c2.75-0.02 4.97-2.25 4.97-5.01c0-2.51-1.85-4.58-4.25-4.95c-0.8-3.73-4.12-6.53-8.09-6.53c-3.46 0-6.42 2.13-7.66 5.14 c-0.87-0.49-1.88-0.77-2.94-0.77C4.71 15.13 2 17.84 2 21.19s2.71 6.06 6.06 6.06"></path><path class="hcFill3 thFill2" fill="#52A0E6" d="M17.94 21.66l-0.69-1.36l-0.69 1.36c-0.04 0.09-0.06 0.19-0.06 0.29c0 0.1 0.02 0.2 0.06 0.29 c0.04 0.09 0.09 0.17 0.16 0.24c0.07 0.07 0.15 0.12 0.24 0.16c0.09 0.04 0.19 0.06 0.29 0.06s0.2-0.02 0.29-0.06 c0.09-0.04 0.17-0.09 0.24-0.16c0.07-0.07 0.12-0.15 0.16-0.24c0.04-0.09 0.06-0.19 0.06-0.29C18 21.84 17.98 21.74 17.94 21.66z"></path><path class="hcFill3 thFill2" fill="#52A0E6" d="M19.29 28.51l-2.04-4.05l-2.04 4.05c0 0-0.21 0.39-0.21 0.95c0 1.24 1.01 2.25 2.25 2.25 c1.24 0 2.25-1.01 2.25-2.25C19.5 28.9 19.29 28.51 19.29 28.51z"></path><path class="hcFill3 thFill2" fill="#52A0E6" d="M23.18 21.64l-0.68-1.35l-0.68 1.35c0 0-0.07 0.13-0.07 0.32c0 0.41 0.34 0.75 0.75 0.75 s0.75-0.34 0.75-0.75C23.25 21.77 23.18 21.64 23.18 21.64z"></path><path class="hcFill3 thFill2" fill="#52A0E6" d="M23.18 30.64l-0.68-1.35l-0.68 1.35c0 0-0.07 0.13-0.07 0.32c0 0.41 0.34 0.75 0.75 0.75 s0.75-0.34 0.75-0.75C23.25 30.77 23.18 30.64 23.18 30.64z"></path><path class="hcFill3 thFill2" fill="#52A0E6" d="M23.18 26.14l-0.68-1.35l-0.68 1.35c0 0-0.07 0.13-0.07 0.32c0 0.41 0.34 0.75 0.75 0.75 s0.75-0.34 0.75-0.75C23.25 26.27 23.18 26.14 23.18 26.14z"></path><path class="hcFill3 thFill2" fill="#52A0E6" d="M12.68 21.64L12 20.29l-0.68 1.35c0 0-0.07 0.13-0.07 0.32c0 0.41 0.34 0.75 0.75 0.75s0.75-0.34 0.75-0.75 C12.75 21.77 12.68 21.64 12.68 21.64z"></path><path class="hcFill3 thFill2" fill="#52A0E6" d="M12.68 30.64L12 29.29l-0.68 1.35c0 0-0.07 0.13-0.07 0.32c0 0.41 0.34 0.75 0.75 0.75s0.75-0.34 0.75-0.75 C12.75 30.77 12.68 30.64 12.68 30.64z"></path><path class="hcFill3 thFill2" fill="#52A0E6" d="M12.68 26.14L12 24.79l-0.68 1.35c0 0-0.07 0.13-0.07 0.32c0 0.41 0.34 0.75 0.75 0.75s0.75-0.34 0.75-0.75 C12.75 26.27 12.68 26.14 12.68 26.14z"></path></svg>